<?xml version="1.0" encoding="UTF-8" standalone="no"?>
<svg
   data-name="Layer 1"
   viewBox="0 0 719.40289 719.40472"
   version="1.1"
   id="svg4"
   sodipodi:docname="switchboard.svg"
   width="719.40289"
   height="719.40472"
   inkscape:version="1.1 (c4e8f9ed74, 2021-05-24)"
   xmlns:inkscape="http://www.inkscape.org/namespaces/inkscape"
   xmlns:sodipodi="http://sodipodi.sourceforge.net/DTD/sodipodi-0.dtd"
   xmlns="http://www.w3.org/2000/svg"
   xmlns:svg="http://www.w3.org/2000/svg">
  <defs
     id="defs8" />
  <sodipodi:namedview
     id="namedview6"
     pagecolor="#ffffff"
     bordercolor="#666666"
     borderopacity="1.0"
     inkscape:pageshadow="2"
     inkscape:pageopacity="0.0"
     inkscape:pagecheckerboard="0"
     showgrid="false"
     width="719.403px"
     fit-margin-top="0"
     fit-margin-left="0"
     fit-margin-right="0"
     fit-margin-bottom="0"
     inkscape:zoom="0.96111111"
     inkscape:cx="360.52023"
     inkscape:cy="360.52023"
     inkscape:window-width="1920"
     inkscape:window-height="1080"
     inkscape:window-x="0"
     inkscape:window-y="0"
     inkscape:window-maximized="1"
     inkscape:current-layer="svg4" />
  <path
     d="M 647.78755,144.28336 H 302.18748 l -1.24999,-0.124 c -0.693,-0.066 -76.63302,-6.618 -123.70502,36.259 -25.734,23.44 -38.78301,58.485 -38.78301,104.163 0,45.548 12.97001,80.274 38.54901,103.207 46.92701,42.074 122.85002,34.311 123.61002,34.234 l 1.37899,-0.151 1.45501,-0.008 h 33.8 a 56.850009,56.85 0 1 1 -0.81999,50.878 h -31.70501 c -3.056,0.285 -9.95601,0.806 -19.503,0.806 -32.38201,0 -95.22602,-6.002 -141.87003,-47.6 -37.008,-33.005 -55.773003,-80.567 -55.773003,-141.366 0,-60.773 18.746003,-108.57 55.717003,-142.065 C 203.86647,87.633363 291.85449,92.393363 304.53248,93.405363 H 601.51254 A 358.39005,358.39 0 0 0 359.70049,3.6323879e-4 C 161.04446,3.6323879e-4 4.4321105e-4,161.04436 4.4321105e-4,359.70236 A 358.10205,358.102 0 0 0 71.630454,575.14036 H 416.42751 l 1.206,0.116 c 0.714,0.063 78.40601,6.547 125.35302,-36.344 24.465,-22.35 36.87,-55.353 36.87,-98.09 0,-42.615 -12.33,-75.316 -36.64901,-97.198 -46.802,-42.114 -124.47501,-34.445 -125.25301,-34.358 l -1.33501,0.141 -1.40499,0.007 H 388.7815 a 56.850009,56.85 0 1 1 0.791,-50.879 h 24.407 c 13.364,-1.212 102.64902,-6.999 162.97603,47.013 35.686,31.95 53.78001,77.462 53.78001,135.275 0,57.783 -18.07401,103.512 -53.72201,135.917 -48.59701,44.177 -116.05002,49.807 -147.25802,49.808 -7.65,0 -13.116,-0.338 -15.6,-0.53 H 117.91246 a 358.38906,358.389 0 0 0 241.79004,93.386 c 198.65702,0 359.70006,-161.045 359.70006,-359.702 a 358.10205,358.102 0 0 0 -71.61501,-215.419 z"
     fill="#ffffff"
     id="path2"
     style="stroke-width:1" />
</svg>
