<?xml version="1.0" encoding="UTF-8"?>
<svg width="143px" height="143px" viewBox="0 0 143 143" version="1.1" xmlns="http://www.w3.org/2000/svg" xmlns:xlink="http://www.w3.org/1999/xlink">
    <title>Group 4</title>
    <defs>
        <path d="M63.24318,126.48636 C98.1714238,126.48636 126.48636,98.1714238 126.48636,63.24318 C126.48636,28.3149362 98.1714238,0 63.24318,0 C28.3149362,0 0,28.3149362 0,63.24318 C0,98.1714238 28.3149362,126.48636 63.24318,126.48636 Z" id="path-1"></path>
    </defs>
    <g id="Logo-/-Branding" stroke="none" stroke-width="1" fill="none" fill-rule="evenodd">
        <g id="Artboard-Copy-14" transform="translate(-79.000000, -494.000000)">
            <g id="Group-4" transform="translate(87.316021, 502.262020)">
                <g id="Gears">
                    <mask id="mask-2" fill="white">
                        <use xlink:href="#path-1"></use>
                    </mask>
                    <use id="Oval-9" stroke="#FFFFFF" stroke-width="15.3" fill="#FFFFFF" stroke-linecap="square" xlink:href="#path-1"></use>
                    <rect id="Rectangle" fill="#252444" mask="url(#mask-2)" x="-17.51364" y="-10.2312194" width="158.4" height="156.6"></rect>
                </g>
                <g id="Group" transform="translate(28.708622, 38.892380)" fill="#FFFFFF">
                    <path d="M7.01415929,18.5056822 C7.01415929,7.53971026 14.6286068,0.211241034 26.36787,0 L69.069117,0 C66.5221581,5.61883725 64.4718451,8.46772602 62.918178,8.54666633 L25.9885714,8.54666633 C19.5952573,8.56387247 15.7464957,12.2810026 15.7464957,18.5056822 C15.7464957,24.6629401 19.5832176,28.6436145 25.7729705,28.6683593 L42.1264562,28.6436144 C44.5016416,28.6683592 46.5371934,30.7150978 46.5371934,33.1793042 C46.5371934,35.6435106 44.6839328,37.0687375 42.3534322,37.187148 L26.2482432,37.2057587 C14.7743961,37.2057587 7.19043602,29.6268832 7.01718394,18.8814274 L7.01415929,18.5056822 Z" id="Combined-Shape-Copy-6"></path>
                    <path d="M0,32.8939396 C0,21.9279676 7.61444749,14.5994984 19.3537107,14.3882574 L62.0549577,14.3882574 C59.5079988,20.0070946 57.4576858,22.8559834 55.9040187,22.9349237 L18.9744121,22.9349237 C12.581098,22.9521299 8.73233637,26.66926 8.73233637,32.8939396 C8.73233637,39.0511974 12.5690584,43.0318719 18.7588112,43.0566167 L35.1122969,43.0318718 C37.4874823,43.0566166 39.5230341,45.1033552 39.5230341,47.5675616 C39.5230341,50.0317679 37.6697735,51.4569949 35.3392729,51.5754053 L19.2340839,51.5940161 C7.7602368,51.5940161 0.176276729,44.0151406 0.00302464955,33.2696848 L0,32.8939396 Z" id="Combined-Shape-Copy-5" transform="translate(31.027479, 32.991137) scale(-1, -1) translate(-31.027479, -32.991137) "></path>
                </g>
            </g>
        </g>
    </g>
</svg>