<?xml version="1.0" standalone="no"?>
<!DOCTYPE svg PUBLIC "-//W3C//DTD SVG 1.0//EN" "http://www.w3.org/TR/2001/REC-SVG-20010904/DTD/svg10.dtd">
<svg xmlns="http://www.w3.org/2000/svg" xmlns:xlink="http://www.w3.org/1999/xlink" id="body_1" width="77" height="67">

<g transform="matrix(0.79761904 0 0 0.79761904 0.21428649 -0)">
	<g>
        <path d="M17.368 64.052C 17.669 63.7209 18.0359 63.4563 18.445 63.2752C 18.8541 63.094 19.2966 63.0003 19.744 63L19.744 63L93.056 63.06C 93.3682 63.0606 93.6735 63.1519 93.9349 63.3228C 94.1962 63.4936 94.4023 63.7367 94.5281 64.0224C 94.6539 64.3081 94.694 64.6242 94.6436 64.9323C 94.5932 65.2404 94.4544 65.5273 94.244 65.758L94.244 65.758L78.632 82.948C 78.3308 83.2793 77.9637 83.5441 77.5542 83.7252C 77.1447 83.9064 76.7018 84 76.254 84L76.254 84L2.94405 83.94C 2.63185 83.9394 2.32654 83.8481 2.06523 83.6772C 1.80391 83.5064 1.59783 83.2634 1.47202 82.9776C 1.3462 82.6919 1.30607 82.3758 1.35649 82.0677C 1.40691 81.7596 1.54572 81.4727 1.75605 81.242L1.75605 81.242L17.368 64.052zM94.244 49.742C 94.4544 49.9727 94.5932 50.2596 94.6436 50.5677C 94.694 50.8758 94.6539 51.1919 94.5281 51.4776C 94.4023 51.7634 94.1962 52.0064 93.9349 52.1772C 93.6735 52.3481 93.3682 52.4394 93.056 52.44L93.056 52.44L19.746 52.5C 19.2983 52.5 18.8554 52.4064 18.4459 52.2252C 18.0364 52.0441 17.6693 51.7793 17.368 51.448L17.368 51.448L1.75605 34.248C 1.54572 34.0173 1.40691 33.7304 1.35649 33.4223C 1.30607 33.1142 1.3462 32.7981 1.47202 32.5124C 1.59783 32.2266 1.80391 31.9836 2.06523 31.8128C 2.32654 31.6419 2.63185 31.5506 2.94405 31.55L2.94405 31.55L76.256 31.49C 76.7035 31.4903 77.146 31.584 77.5551 31.7652C 77.9642 31.9463 78.3311 32.2109 78.632 32.542L78.632 32.542L94.244 49.742zM17.368 1.052C 17.669 0.720916 18.0359 0.456328 18.445 0.275176C 18.8541 0.0940234 19.2966 0.000298083 19.744 0L19.744 0L93.056 0.06C 93.3682 0.0606347 93.6735 0.151917 93.9349 0.322758C 94.1962 0.493599 94.4023 0.736647 94.5281 1.02238C 94.6539 1.30811 94.694 1.62423 94.6436 1.93234C 94.5932 2.24044 94.4544 2.52728 94.244 2.758L94.244 2.758L78.632 19.948C 78.3308 20.2793 77.9637 20.5441 77.5542 20.7252C 77.1447 20.9064 76.7018 21 76.254 21L76.254 21L2.94405 20.94C 2.63185 20.9394 2.32654 20.8481 2.06523 20.6772C 1.80391 20.5064 1.59783 20.2634 1.47202 19.9776C 1.3462 19.6919 1.30607 19.3758 1.35649 19.0677C 1.40691 18.7596 1.54572 18.4727 1.75605 18.242L1.75605 18.242L17.368 1.052z" stroke="none" fill="none" />
	</g>
</g>
</svg>