<?xml version="1.0" encoding="iso-8859-1"?>
<!-- Generator: Adobe Illustrator 19.0.0, SVG Export Plug-In . SVG Version: 6.00 Build 0)  -->
<svg version="1.1" id="Capa_1" xmlns="http://www.w3.org/2000/svg" xmlns:xlink="http://www.w3.org/1999/xlink" x="0px" y="0px"
	 viewBox="0 0 512 512" style="enable-background:new 0 0 512 512;" xml:space="preserve" fill="#fff">
<g>
	<g>
		<polygon points="0,0 0,135 30,135 30,30 135,30 135,0 		"/>
	</g>
</g>
<g>
	<g>
		<polygon points="30,482 30,377 0,377 0,512 135,512 135,482 		"/>
	</g>
</g>
<g>
	<g>
		<polygon points="377,0 377,30 482,30 482,135 512,135 512,0 		"/>
	</g>
</g>
<g>
	<g>
		<polygon points="482,377 482,482 377,482 377,512 512,512 512,377 		"/>
	</g>
</g>
<g>
	<g>
		<rect x="200.67" y="200.67" width="110.67" height="110.67"/>
	</g>
</g>
<g>
	<g>
		<rect x="60" y="200.67" width="110.67" height="110.67"/>
	</g>
</g>
<g>
	<g>
		<rect x="60" y="341.33" width="110.67" height="110.67"/>
	</g>
</g>
<g>
	<g>
		<rect x="200.67" y="341.33" width="110.67" height="110.67"/>
	</g>
</g>
<g>
	<g>
		<rect x="60" y="60" width="110.67" height="110.67"/>
	</g>
</g>
<g>
	<g>
		<rect x="341.33" y="200.67" width="110.67" height="110.67"/>
	</g>
</g>
<g>
	<g>
		<rect x="341.33" y="341.33" width="110.67" height="110.67"/>
	</g>
</g>
<g>
	<g>
		<rect x="341.33" y="60" width="110.67" height="110.67"/>
	</g>
</g>
<g>
	<g>
		<rect x="200.67" y="60" width="110.67" height="110.67"/>
	</g>
</g>
<g>
</g>
<g>
</g>
<g>
</g>
<g>
</g>
<g>
</g>
<g>
</g>
<g>
</g>
<g>
</g>
<g>
</g>
<g>
</g>
<g>
</g>
<g>
</g>
<g>
</g>
<g>
</g>
<g>
</g>
</svg>
